<?xml version="1.0" encoding="UTF-8"?>
<svg xmlns="http://www.w3.org/2000/svg" viewBox="0 0 1600 420" width="1600" height="420"
     role="img" aria-labelledby="title desc" preserveAspectRatio="xMidYMid slice">
  <title id="title">Tutorials</title>
  <desc id="desc">Hands-on guides — environment, medallion, AI, migrations, industry deep dives</desc>
  <defs>
    <linearGradient id="bg" x1="0" y1="0" x2="1" y2="0.7">
      <stop offset="0%"   stop-color="#082F49"/>
      <stop offset="55%"  stop-color="#0078D4"/>
      <stop offset="100%" stop-color="#082F49"/>
    </linearGradient>
    <radialGradient id="glow" cx="78%" cy="50%" r="55%">
      <stop offset="0%"   stop-color="#38BDF8" stop-opacity="0.25"/>
      <stop offset="100%" stop-color="#38BDF8" stop-opacity="0"/>
    </radialGradient>
    <style>
      .h-title { font-family:'IBM Plex Sans','Segoe UI','Helvetica Neue',sans-serif; font-weight:600; font-size:54px; fill:#FFFFFF; letter-spacing:-1.0px; }
      .h-sub   { font-family:'IBM Plex Sans','Segoe UI','Helvetica Neue',sans-serif; font-weight:400; font-size:20px; fill:#FFFFFF; fill-opacity:0.84; letter-spacing:-0.2px; }
      .h-chip  { font-family:'JetBrains Mono','SF Mono','Consolas',monospace; font-weight:700; font-size:13px; letter-spacing:2.5px; fill:#7DD3FC; }
      .h-foot  { font-family:'JetBrains Mono','SF Mono','Consolas',monospace; font-weight:500; font-size:11px; letter-spacing:1.2px; fill:#FFFFFF; fill-opacity:0.45; }
      .v-num   { font-family:'JetBrains Mono','SF Mono','Consolas',monospace; font-weight:700; font-size:15px; fill:#FFFFFF; letter-spacing:0.5px; }
      .v-lbl   { font-family:'JetBrains Mono','SF Mono','Consolas',monospace; font-weight:600; font-size:13px; fill:#FFFFFF; fill-opacity:0.95; letter-spacing:0.8px; }
      .v-cap   { font-family:'JetBrains Mono','SF Mono','Consolas',monospace; font-weight:500; font-size:11px; fill:#FFFFFF; fill-opacity:0.75; letter-spacing:1.0px; }
    </style>
  </defs>

  <!-- Background -->
  <rect width="1600" height="420" fill="url(#bg)"/>
  <rect width="1600" height="420" fill="url(#glow)"/>

  <!-- Left accent stripe -->
  <rect x="0" y="0" width="6" height="420" fill="#7DD3FC" opacity="0.65"/>
  <rect x="0" y="0" width="6" height="120" fill="#38BDF8"/>

  <!-- Bottom scan line -->
  <rect x="0" y="408" width="1600" height="2" fill="#7DD3FC" opacity="0.25"/>

  <!-- Eyebrow chip -->
  <g transform="translate(72, 60)">
    <rect x="0" y="0" width="330" height="34" rx="0" fill="#38BDF8" fill-opacity="0.10" stroke="#38BDF8" stroke-opacity="0.55"/>
    <rect x="0" y="0" width="6" height="34" fill="#38BDF8"/>
    <text class="h-chip" x="165.0" y="22" text-anchor="middle">STEP-BY-STEP · 56 TUTORIALS</text>
  </g>

  <!-- Title -->
  <text class="h-title" x="72" y="208">Tutorials</text>

  <!-- Tagline -->
  <text class="h-sub" x="72" y="252">Hands-on guides — environment, medallion, AI, migrations, industry deep dives</text>

  <!-- Footer chip -->
  <text class="h-foot" x="72" y="385">BRONZE → SILVER → GOLD · MLOPS · RAG · 10 MIGRATION PATHS</text>

<g transform="translate(900, 80)">

    <g transform="translate(0,0)">
      <rect x="0" y="0" width="160" height="60" rx="4" fill="#38BDF8" fill-opacity="0.28" stroke="#38BDF8" stroke-opacity="0.95" stroke-width="1.2"/>
      <rect x="0" y="0" width="4" height="60" fill="#38BDF8"/>
      <text class="v-lbl" x="14" y="35" font-size="11">00 ENV SETUP</text>
    </g>

    <g transform="translate(172,0)">
      <rect x="0" y="0" width="160" height="60" rx="4" fill="#38BDF8" fill-opacity="0.28" stroke="#38BDF8" stroke-opacity="0.95" stroke-width="1.2"/>
      <rect x="0" y="0" width="4" height="60" fill="#38BDF8"/>
      <text class="v-lbl" x="14" y="35" font-size="11">01 BRONZE</text>
    </g>

    <g transform="translate(344,0)">
      <rect x="0" y="0" width="160" height="60" rx="4" fill="#38BDF8" fill-opacity="0.28" stroke="#38BDF8" stroke-opacity="0.95" stroke-width="1.2"/>
      <rect x="0" y="0" width="4" height="60" fill="#38BDF8"/>
      <text class="v-lbl" x="14" y="35" font-size="11">02 SILVER</text>
    </g>

    <g transform="translate(516,0)">
      <rect x="0" y="0" width="160" height="60" rx="4" fill="#38BDF8" fill-opacity="0.28" stroke="#38BDF8" stroke-opacity="0.95" stroke-width="1.2"/>
      <rect x="0" y="0" width="4" height="60" fill="#38BDF8"/>
      <text class="v-lbl" x="14" y="35" font-size="11">03 GOLD</text>
    </g>

    <g transform="translate(0,72)">
      <rect x="0" y="0" width="160" height="60" rx="4" fill="#38BDF8" fill-opacity="0.28" stroke="#38BDF8" stroke-opacity="0.95" stroke-width="1.2"/>
      <rect x="0" y="0" width="4" height="60" fill="#38BDF8"/>
      <text class="v-lbl" x="14" y="35" font-size="11">04 REAL-TIME</text>
    </g>

    <g transform="translate(172,72)">
      <rect x="0" y="0" width="160" height="60" rx="4" fill="#38BDF8" fill-opacity="0.28" stroke="#38BDF8" stroke-opacity="0.95" stroke-width="1.2"/>
      <rect x="0" y="0" width="4" height="60" fill="#38BDF8"/>
      <text class="v-lbl" x="14" y="35" font-size="11">05 DIRECT LAKE</text>
    </g>

    <g transform="translate(344,72)">
      <rect x="0" y="0" width="160" height="60" rx="4" fill="#38BDF8" fill-opacity="0.28" stroke="#38BDF8" stroke-opacity="0.95" stroke-width="1.2"/>
      <rect x="0" y="0" width="4" height="60" fill="#38BDF8"/>
      <text class="v-lbl" x="14" y="35" font-size="11">09 ML</text>
    </g>

    <g transform="translate(516,72)">
      <rect x="0" y="0" width="160" height="60" rx="4" fill="#38BDF8" fill-opacity="0.28" stroke="#38BDF8" stroke-opacity="0.95" stroke-width="1.2"/>
      <rect x="0" y="0" width="4" height="60" fill="#38BDF8"/>
      <text class="v-lbl" x="14" y="35" font-size="11">13 MIGRATION</text>
    </g>

    <g transform="translate(0,144)">
      <rect x="0" y="0" width="160" height="60" rx="4" fill="#38BDF8" fill-opacity="0.28" stroke="#38BDF8" stroke-opacity="0.95" stroke-width="1.2"/>
      <rect x="0" y="0" width="4" height="60" fill="#38BDF8"/>
      <text class="v-lbl" x="14" y="35" font-size="11">39 MLOPS</text>
    </g>

    <g transform="translate(172,144)">
      <rect x="0" y="0" width="160" height="60" rx="4" fill="#38BDF8" fill-opacity="0.28" stroke="#38BDF8" stroke-opacity="0.95" stroke-width="1.2"/>
      <rect x="0" y="0" width="4" height="60" fill="#38BDF8"/>
      <text class="v-lbl" x="14" y="35" font-size="11">40 RAG</text>
    </g>

    <g transform="translate(344,144)">
      <rect x="0" y="0" width="160" height="60" rx="4" fill="#38BDF8" fill-opacity="0.28" stroke="#38BDF8" stroke-opacity="0.95" stroke-width="1.2"/>
      <rect x="0" y="0" width="4" height="60" fill="#38BDF8"/>
      <text class="v-lbl" x="14" y="35" font-size="11">55 PALANTIR</text>
    </g>

    <g transform="translate(516,144)">
      <rect x="0" y="0" width="160" height="60" rx="4" fill="#38BDF8" fill-opacity="0.28" stroke="#38BDF8" stroke-opacity="0.95" stroke-width="1.2"/>
      <rect x="0" y="0" width="4" height="60" fill="#38BDF8"/>
      <text class="v-lbl" x="14" y="35" font-size="11">56 INFORMATICA</text>
    </g>
</g>
</svg>