<?xml version="1.0" encoding="UTF-8"?>
<svg xmlns="http://www.w3.org/2000/svg" xmlns:xlink="http://www.w3.org/1999/xlink"
  viewBox="0 -40 1654 1229" width="1654" height="1229">
<defs>
    
      <marker id="arrow-475569" viewBox="0 0 10 10" refX="9" refY="5" markerWidth="8" markerHeight="8" orient="auto">
        <path d="M0,0 L10,5 L0,10 Z" fill="#475569" />
      </marker>
    
      <marker id="arrow-0078D4" viewBox="0 0 10 10" refX="9" refY="5" markerWidth="8" markerHeight="8" orient="auto">
        <path d="M0,0 L10,5 L0,10 Z" fill="#0078D4" />
      </marker>
    
  </defs>
<rect x="0" y="-40" width="1654" height="1229" fill="#FFFFFF" />
<text x="827" y="-8" text-anchor="middle" font-size="26" font-weight="bold" fill="#0A2540">Fabric IQ Knowledge Graph</text>
<rect x="60" y="110" width="1534" height="226" rx="12" ry="12" fill="#FEF2F2" stroke="#FCA5A5" stroke-width="1" opacity="1" /><text x="76" y="132" font-size="16" font-weight="bold" fill="#7F1D1D">Semantic Ontology</text>
<rect x="60" y="366" width="1534" height="226" rx="12" ry="12" fill="#FAF5FF" stroke="#C4B5FD" stroke-width="1" opacity="1" /><text x="76" y="388" font-size="16" font-weight="bold" fill="#581C87">AI Planning</text>
<rect x="60" y="622" width="1534" height="226" rx="12" ry="12" fill="#FFF7ED" stroke="#FDBA74" stroke-width="1" opacity="1" /><text x="76" y="644" font-size="16" font-weight="bold" fill="#7C2D12">Knowledge Graph</text>
<rect x="60" y="878" width="1534" height="141" rx="12" ry="12" fill="#F0FDF4" stroke="#86EFAC" stroke-width="1" opacity="1" /><text x="76" y="900" font-size="16" font-weight="bold" fill="#14532D">Data Agents</text>
<text x="60" y="46" font-size="26" fill="#243A5E" font-weight="bold">Fabric IQ Knowledge Graph</text>
<text x="60" y="84" font-size="14" fill="#64748B" font-weight="normal">Business ontology maps data to concepts, AI plans workflows, and data agents answer natural-language questions using a knowledge graph</text>
<rect x="80" y="186" width="120" height="120" rx="8" ry="8" fill="#FFFFFF" stroke="#E2E8F0" stroke-width="1" opacity="1" /><text x="140" y="298" text-anchor="middle" font-size="12" fill="#0F172A" font-weight="normal">Tables</text>
<rect x="240" y="186" width="120" height="120" rx="8" ry="8" fill="#FFFFFF" stroke="#E2E8F0" stroke-width="1" opacity="1" /><image href="https://raw.githubusercontent.com/jgraph/drawio/dev/src/main/webapp/img/lib/azure2/storage/Storage_Accounts.svg" x="260" y="194" width="80" height="80" preserveAspectRatio="xMidYMid meet" /><text x="300" y="298" text-anchor="middle" font-size="12" fill="#0F172A" font-weight="normal">Columns</text>
<rect x="400" y="186" width="120" height="120" rx="8" ry="8" fill="#FFFFFF" stroke="#E2E8F0" stroke-width="1" opacity="1" /><text x="460" y="298" text-anchor="middle" font-size="12" fill="#0F172A" font-weight="normal">Relationships</text>
<rect x="560" y="186" width="120" height="120" rx="8" ry="8" fill="#FFFFFF" stroke="#E2E8F0" stroke-width="1" opacity="1" /><text x="620" y="298" text-anchor="middle" font-size="12" fill="#0F172A" font-weight="normal">Business Concepts</text>
<rect x="80" y="442" width="120" height="120" rx="8" ry="8" fill="#FFFFFF" stroke="#E2E8F0" stroke-width="1" opacity="1" /><image href="https://raw.githubusercontent.com/jgraph/drawio/dev/src/main/webapp/img/lib/azure2/ai_machine_learning/Azure_OpenAI.svg" x="100" y="450" width="80" height="80" preserveAspectRatio="xMidYMid meet" /><text x="140" y="554" text-anchor="middle" font-size="12" fill="#0F172A" font-weight="normal">AI Agents</text>
<g transform="translate(240,462)"><path d="M12,0 L188,0 Q200,0 200,12 L200,68 Q200,80 188,80 L12,80 Q0,80 0,68 L0,12 Q0,0 12,0 Z" fill="#FFFFFF" stroke="#E2E8F0" stroke-width="1" opacity="1"  /><text x="100" y="40" text-anchor="middle" dominant-baseline="middle" font-size="13" fill="#0F172A" font-weight="normal">Workflow Plan</text></g>
<g transform="translate(480,462)"><path d="M12,0 L188,0 Q200,0 200,12 L200,68 Q200,80 188,80 L12,80 Q0,80 0,68 L0,12 Q0,0 12,0 Z" fill="#FFFFFF" stroke="#E2E8F0" stroke-width="1" opacity="1"  /><text x="100" y="40" text-anchor="middle" dominant-baseline="middle" font-size="13" fill="#0F172A" font-weight="normal">Multi-step Analysis</text></g>
<rect x="80" y="698" width="120" height="120" rx="8" ry="8" fill="#FFFFFF" stroke="#E2E8F0" stroke-width="1" opacity="1" /><text x="140" y="810" text-anchor="middle" font-size="12" fill="#0F172A" font-weight="normal">Entities</text>
<rect x="240" y="698" width="120" height="120" rx="8" ry="8" fill="#FFFFFF" stroke="#E2E8F0" stroke-width="1" opacity="1" /><text x="300" y="810" text-anchor="middle" font-size="12" fill="#0F172A" font-weight="normal">Graph Links</text>
<rect x="400" y="698" width="120" height="120" rx="8" ry="8" fill="#FFFFFF" stroke="#E2E8F0" stroke-width="1" opacity="1" /><image href="https://raw.githubusercontent.com/jgraph/drawio/dev/src/main/webapp/img/lib/azure2/databases/SQL_Database.svg" x="420" y="706" width="80" height="80" preserveAspectRatio="xMidYMid meet" /><text x="460" y="810" text-anchor="middle" font-size="12" fill="#0F172A" font-weight="normal">Facts</text>
<rect x="80" y="954" width="120" height="120" rx="8" ry="8" fill="#FFFFFF" stroke="#E2E8F0" stroke-width="1" opacity="1" /><text x="140" y="1066" text-anchor="middle" font-size="12" fill="#0F172A" font-weight="normal">Natural Language</text>
<rect x="240" y="954" width="120" height="120" rx="8" ry="8" fill="#FFFFFF" stroke="#E2E8F0" stroke-width="1" opacity="1" /><image href="https://raw.githubusercontent.com/jgraph/drawio/dev/src/main/webapp/img/lib/azure2/ai_machine_learning/Bot_Services.svg" x="260" y="962" width="80" height="80" preserveAspectRatio="xMidYMid meet" /><text x="300" y="1066" text-anchor="middle" font-size="12" fill="#0F172A" font-weight="normal">Data Agents</text>
<g transform="translate(60,1039)"><path d="M12,0 L288,0 Q300,0 300,12 L300,78 Q300,90 288,90 L12,90 Q0,90 0,78 L0,12 Q0,0 12,0 Z" fill="#F8FAFC" stroke="#E2E8F0" stroke-width="2" opacity="1"  /><text x="150" y="45" text-anchor="middle" dominant-baseline="middle" font-size="13" fill="#0F172A" font-weight="normal">Microsoft Azure native services</text></g>
<g transform="translate(440,1039)"><path d="M12,0 L288,0 Q300,0 300,12 L300,78 Q300,90 288,90 L12,90 Q0,90 0,78 L0,12 Q0,0 12,0 Z" fill="#F8FAFC" stroke="#E2E8F0" stroke-width="2" opacity="1"  /><text x="150" y="45" text-anchor="middle" dominant-baseline="middle" font-size="13" fill="#0F172A" font-weight="normal">Business-grounded analytics</text></g>
<g transform="translate(820,1039)"><path d="M12,0 L288,0 Q300,0 300,12 L300,78 Q300,90 288,90 L12,90 Q0,90 0,78 L0,12 Q0,0 12,0 Z" fill="#F8FAFC" stroke="#E2E8F0" stroke-width="2" opacity="1"  /><text x="150" y="45" text-anchor="middle" dominant-baseline="middle" font-size="13" fill="#0F172A" font-weight="normal">Planned multi-step workflows</text></g>
<g transform="translate(1200,1039)"><path d="M12,0 L288,0 Q300,0 300,12 L300,78 Q300,90 288,90 L12,90 Q0,90 0,78 L0,12 Q0,0 12,0 Z" fill="#F8FAFC" stroke="#E2E8F0" stroke-width="2" opacity="1"  /><text x="150" y="45" text-anchor="middle" dominant-baseline="middle" font-size="13" fill="#0F172A" font-weight="normal">Knowledge graph-backed answers</text></g>
<path id="edge-e1" d="M140,246 L220,246 L220,246 L300,246" fill="none" stroke="#475569" stroke-width="2"  marker-end="url(#arrow-475569)" /><text x="220" y="238" text-anchor="middle" font-size="12" fill="#FFFFFF" font-weight="bold" style="paint-order:stroke;stroke:#FFFFFF;stroke-width:3px">1. 1</text>
<path id="edge-e2" d="M300,246 L380,246 L380,246 L460,246" fill="none" stroke="#475569" stroke-width="2"  marker-end="url(#arrow-475569)" /><text x="380" y="238" text-anchor="middle" font-size="12" fill="#FFFFFF" font-weight="bold" style="paint-order:stroke;stroke:#FFFFFF;stroke-width:3px">2. 2</text>
<path id="edge-e3" d="M460,246 L540,246 L540,246 L620,246" fill="none" stroke="#475569" stroke-width="2"  marker-end="url(#arrow-475569)" /><text x="540" y="238" text-anchor="middle" font-size="12" fill="#FFFFFF" font-weight="bold" style="paint-order:stroke;stroke:#FFFFFF;stroke-width:3px">3. 3</text>
<path id="edge-e4" d="M620,246 L380,246 L380,502 L140,502" fill="none" stroke="#0078D4" stroke-width="2"  marker-end="url(#arrow-0078D4)" /><text x="380" y="366" text-anchor="middle" font-size="12" fill="#FFFFFF" font-weight="bold" style="paint-order:stroke;stroke:#FFFFFF;stroke-width:3px">4. 4</text>
<path id="edge-e5" d="M140,502 L240,502 L240,502 L340,502" fill="none" stroke="#475569" stroke-width="2"  marker-end="url(#arrow-475569)" /><text x="240" y="494" text-anchor="middle" font-size="12" fill="#FFFFFF" font-weight="bold" style="paint-order:stroke;stroke:#FFFFFF;stroke-width:3px">5. 5</text>
<path id="edge-e6" d="M340,502 L460,502 L460,502 L580,502" fill="none" stroke="#475569" stroke-width="2"  marker-end="url(#arrow-475569)" /><text x="460" y="494" text-anchor="middle" font-size="12" fill="#FFFFFF" font-weight="bold" style="paint-order:stroke;stroke:#FFFFFF;stroke-width:3px">6. 6</text>
<path id="edge-e7" d="M580,502 L360,502 L360,758 L140,758" fill="none" stroke="#475569" stroke-width="2"  marker-end="url(#arrow-475569)" /><text x="360" y="622" text-anchor="middle" font-size="12" fill="#FFFFFF" font-weight="bold" style="paint-order:stroke;stroke:#FFFFFF;stroke-width:3px">7. 7</text>
<path id="edge-e8" d="M140,758 L220,758 L220,758 L300,758" fill="none" stroke="#475569" stroke-width="2"  marker-end="url(#arrow-475569)" /><text x="220" y="750" text-anchor="middle" font-size="12" fill="#FFFFFF" font-weight="bold" style="paint-order:stroke;stroke:#FFFFFF;stroke-width:3px">8. 8</text>
<path id="edge-e9" d="M300,758 L380,758 L380,758 L460,758" fill="none" stroke="#475569" stroke-width="2"  marker-end="url(#arrow-475569)" /><text x="380" y="750" text-anchor="middle" font-size="12" fill="#FFFFFF" font-weight="bold" style="paint-order:stroke;stroke:#FFFFFF;stroke-width:3px">9. 9</text>
<path id="edge-e10" d="M140,1014 L220,1014 L220,1014 L300,1014" fill="none" stroke="#0078D4" stroke-width="2"  marker-end="url(#arrow-0078D4)" /><text x="220" y="1006" text-anchor="middle" font-size="12" fill="#FFFFFF" font-weight="bold" style="paint-order:stroke;stroke:#FFFFFF;stroke-width:3px">10. 10</text>
<path id="edge-e11" d="M300,1014 L220,1014 L220,502 L140,502" fill="none" stroke="#475569" stroke-width="2"  marker-end="url(#arrow-475569)" /><text x="220" y="750" text-anchor="middle" font-size="12" fill="#FFFFFF" font-weight="bold" style="paint-order:stroke;stroke:#FFFFFF;stroke-width:3px">11. 11</text>
<path id="edge-e12" d="M300,1014 L380,1014 L380,758 L460,758" fill="none" stroke="#475569" stroke-width="2"  marker-end="url(#arrow-475569)" /><text x="380" y="878" text-anchor="middle" font-size="12" fill="#FFFFFF" font-weight="bold" style="paint-order:stroke;stroke:#FFFFFF;stroke-width:3px">12. 12</text>
</svg>