<?xml version="1.0" encoding="UTF-8"?>
<svg xmlns="http://www.w3.org/2000/svg" xmlns:xlink="http://www.w3.org/1999/xlink"
  viewBox="0 -40 1654 1229" width="1654" height="1229">
<defs>
    
      <marker id="arrow-0078D4" viewBox="0 0 10 10" refX="9" refY="5" markerWidth="8" markerHeight="8" orient="auto">
        <path d="M0,0 L10,5 L0,10 Z" fill="#0078D4" />
      </marker>
    
      <marker id="arrow-475569" viewBox="0 0 10 10" refX="9" refY="5" markerWidth="8" markerHeight="8" orient="auto">
        <path d="M0,0 L10,5 L0,10 Z" fill="#475569" />
      </marker>
    
      <marker id="arrow-22C55E" viewBox="0 0 10 10" refX="9" refY="5" markerWidth="8" markerHeight="8" orient="auto">
        <path d="M0,0 L10,5 L0,10 Z" fill="#22C55E" />
      </marker>
    
      <marker id="arrow-F97316" viewBox="0 0 10 10" refX="9" refY="5" markerWidth="8" markerHeight="8" orient="auto">
        <path d="M0,0 L10,5 L0,10 Z" fill="#F97316" />
      </marker>
    
  </defs>
<rect x="0" y="-40" width="1654" height="1229" fill="#FFFFFF" />
<text x="827" y="-8" text-anchor="middle" font-size="26" font-weight="bold" fill="#0A2540">Medallion Architecture</text>
<rect x="60" y="110" width="1534" height="200" rx="12" ry="12" fill="#EFF6FF" stroke="#93C5FD" stroke-width="1" opacity="1" /><text x="76" y="132" font-size="16" font-weight="bold" fill="#243A5E">Ingestion and Platform</text>
<rect x="60" y="340" width="1534" height="200" rx="12" ry="12" fill="#F0FDF4" stroke="#86EFAC" stroke-width="1" opacity="1" /><text x="76" y="362" font-size="16" font-weight="bold" fill="#14532D">Transformation and Modeling</text>
<rect x="60" y="570" width="1534" height="200" rx="12" ry="12" fill="#FFF7ED" stroke="#FDBA74" stroke-width="1" opacity="1" /><text x="76" y="592" font-size="16" font-weight="bold" fill="#7C2D12">Consumption and Semantics</text>
<text x="60" y="46" font-size="26" fill="#243A5E" font-weight="bold">Medallion Architecture</text>
<text x="60" y="84" font-size="14" fill="#64748B" font-weight="normal">External sources -&gt; Bronze -&gt; Silver -&gt; Gold -&gt; Power BI Direct Lake, all on Fabric F64 with Purview governance</text>
<rect x="80" y="186" width="120" height="120" rx="8" ry="8" fill="#FFFFFF" stroke="#E2E8F0" stroke-width="1" opacity="1" /><text x="140" y="298" text-anchor="middle" font-size="12" fill="#0F172A" font-weight="normal">External Data Sources</text>
<rect x="240" y="186" width="120" height="120" rx="8" ry="8" fill="#FFFFFF" stroke="#E2E8F0" stroke-width="1" opacity="1" /><text x="300" y="298" text-anchor="middle" font-size="12" fill="#0F172A" font-weight="normal">Fabric F64 Capacity</text>
<rect x="400" y="186" width="120" height="120" rx="8" ry="8" fill="#FFFFFF" stroke="#E2E8F0" stroke-width="1" opacity="1" /><image href="https://raw.githubusercontent.com/jgraph/drawio/dev/src/main/webapp/img/lib/azure2/storage/Data_Lake_Storage_Gen1.svg" x="420" y="194" width="80" height="80" preserveAspectRatio="xMidYMid meet" /><text x="460" y="298" text-anchor="middle" font-size="12" fill="#0F172A" font-weight="normal">Bronze Lakehouse</text>
<rect x="560" y="186" width="120" height="120" rx="8" ry="8" fill="#FFFFFF" stroke="#E2E8F0" stroke-width="1" opacity="1" /><text x="620" y="298" text-anchor="middle" font-size="12" fill="#0F172A" font-weight="normal">Microsoft Purview</text>
<rect x="80" y="416" width="120" height="120" rx="8" ry="8" fill="#FFFFFF" stroke="#E2E8F0" stroke-width="1" opacity="1" /><text x="140" y="528" text-anchor="middle" font-size="12" fill="#0F172A" font-weight="normal">PySpark Notebooks</text>
<rect x="240" y="416" width="120" height="120" rx="8" ry="8" fill="#FFFFFF" stroke="#E2E8F0" stroke-width="1" opacity="1" /><image href="https://raw.githubusercontent.com/jgraph/drawio/dev/src/main/webapp/img/lib/azure2/storage/Data_Lake_Storage_Gen1.svg" x="260" y="424" width="80" height="80" preserveAspectRatio="xMidYMid meet" /><text x="300" y="528" text-anchor="middle" font-size="12" fill="#0F172A" font-weight="normal">Silver Lakehouse</text>
<rect x="400" y="416" width="120" height="120" rx="8" ry="8" fill="#FFFFFF" stroke="#E2E8F0" stroke-width="1" opacity="1" /><image href="https://raw.githubusercontent.com/jgraph/drawio/dev/src/main/webapp/img/lib/azure2/storage/Data_Lake_Storage_Gen1.svg" x="420" y="424" width="80" height="80" preserveAspectRatio="xMidYMid meet" /><text x="460" y="528" text-anchor="middle" font-size="12" fill="#0F172A" font-weight="normal">Gold Lakehouse</text>
<rect x="80" y="646" width="120" height="120" rx="8" ry="8" fill="#FFFFFF" stroke="#E2E8F0" stroke-width="1" opacity="1" /><text x="140" y="758" text-anchor="middle" font-size="12" fill="#0F172A" font-weight="normal">Power BI Direct Lake</text>
<g transform="translate(60,1039)"><path d="M12,0 L288,0 Q300,0 300,12 L300,78 Q300,90 288,90 L12,90 Q0,90 0,78 L0,12 Q0,0 12,0 Z" fill="#F8FAFC" stroke="#E2E8F0" stroke-width="2" opacity="1"  /><text x="150" y="45" text-anchor="middle" dominant-baseline="middle" font-size="13" fill="#0F172A" font-weight="normal">Microsoft Azure native governance and analytics</text></g>
<g transform="translate(440,1039)"><path d="M12,0 L288,0 Q300,0 300,12 L300,78 Q300,90 288,90 L12,90 Q0,90 0,78 L0,12 Q0,0 12,0 Z" fill="#F8FAFC" stroke="#E2E8F0" stroke-width="2" opacity="1"  /><text x="150" y="45" text-anchor="middle" dominant-baseline="middle" font-size="13" fill="#0F172A" font-weight="normal">Bronze keeps raw Delta data append-only</text></g>
<g transform="translate(820,1039)"><path d="M12,0 L288,0 Q300,0 300,12 L300,78 Q300,90 288,90 L12,90 Q0,90 0,78 L0,12 Q0,0 12,0 Z" fill="#F8FAFC" stroke="#E2E8F0" stroke-width="2" opacity="1"  /><text x="150" y="45" text-anchor="middle" dominant-baseline="middle" font-size="13" fill="#0F172A" font-weight="normal">Silver enforces quality, deduplication, and schema</text></g>
<g transform="translate(1200,1039)"><path d="M12,0 L288,0 Q300,0 300,12 L300,78 Q300,90 288,90 L12,90 Q0,90 0,78 L0,12 Q0,0 12,0 Z" fill="#F8FAFC" stroke="#E2E8F0" stroke-width="2" opacity="1"  /><text x="150" y="45" text-anchor="middle" dominant-baseline="middle" font-size="13" fill="#0F172A" font-weight="normal">Gold serves star-schema KPIs to Power BI</text></g>
<path id="edge-e1" d="M140,246 L300,246 L300,246 L460,246" fill="none" stroke="#0078D4" stroke-width="2"  marker-end="url(#arrow-0078D4)" /><text x="300" y="238" text-anchor="middle" font-size="12" fill="#FFFFFF" font-weight="bold" style="paint-order:stroke;stroke:#FFFFFF;stroke-width:3px">1. 1</text>
<path id="edge-e2" d="M300,246 L380,246 L380,246 L460,246" fill="none" stroke="#475569" stroke-width="2"  marker-end="url(#arrow-475569)" /><text x="380" y="238" text-anchor="middle" font-size="12" fill="#FFFFFF" font-weight="bold" style="paint-order:stroke;stroke:#FFFFFF;stroke-width:3px">2. 2</text>
<path id="edge-e3" d="M460,246 L300,246 L300,476 L140,476" fill="none" stroke="#0078D4" stroke-width="2"  marker-end="url(#arrow-0078D4)" /><text x="300" y="353" text-anchor="middle" font-size="12" fill="#FFFFFF" font-weight="bold" style="paint-order:stroke;stroke:#FFFFFF;stroke-width:3px">3. 3</text>
<path id="edge-e4" d="M140,476 L220,476 L220,476 L300,476" fill="none" stroke="#22C55E" stroke-width="2"  marker-end="url(#arrow-22C55E)" /><text x="220" y="468" text-anchor="middle" font-size="12" fill="#FFFFFF" font-weight="bold" style="paint-order:stroke;stroke:#FFFFFF;stroke-width:3px">4. 4</text>
<path id="edge-e5" d="M300,476 L380,476 L380,476 L460,476" fill="none" stroke="#F97316" stroke-width="2"  marker-end="url(#arrow-F97316)" /><text x="380" y="468" text-anchor="middle" font-size="12" fill="#FFFFFF" font-weight="bold" style="paint-order:stroke;stroke:#FFFFFF;stroke-width:3px">5. 5</text>
<path id="edge-e6" d="M460,476 L300,476 L300,706 L140,706" fill="none" stroke="#0078D4" stroke-width="2"  marker-end="url(#arrow-0078D4)" /><text x="300" y="583" text-anchor="middle" font-size="12" fill="#FFFFFF" font-weight="bold" style="paint-order:stroke;stroke:#FFFFFF;stroke-width:3px">6. 6</text>
<path id="edge-e7" d="M620,246 L540,246 L540,246 L460,246" fill="none" stroke="#475569" stroke-width="2"  marker-end="url(#arrow-475569)" /><text x="540" y="238" text-anchor="middle" font-size="12" fill="#FFFFFF" font-weight="bold" style="paint-order:stroke;stroke:#FFFFFF;stroke-width:3px">7. 7</text>
<path id="edge-e8" d="M620,246 L460,246 L460,476 L300,476" fill="none" stroke="#475569" stroke-width="2"  marker-end="url(#arrow-475569)" /><text x="460" y="353" text-anchor="middle" font-size="12" fill="#FFFFFF" font-weight="bold" style="paint-order:stroke;stroke:#FFFFFF;stroke-width:3px">8. 8</text>
<path id="edge-e9" d="M620,246 L540,246 L540,476 L460,476" fill="none" stroke="#475569" stroke-width="2"  marker-end="url(#arrow-475569)" /><text x="540" y="353" text-anchor="middle" font-size="12" fill="#FFFFFF" font-weight="bold" style="paint-order:stroke;stroke:#FFFFFF;stroke-width:3px">9. 9</text>
</svg>